<?xml version="1.0" standalone="no"?>
<!DOCTYPE svg PUBLIC "-//W3C//DTD SVG 1.1//EN" "http://www.w3.org/Graphics/SVG/1.1/DTD/svg11.dtd" >
<svg xmlns="http://www.w3.org/2000/svg">
<metadata></metadata>
<defs>
<font id="aldoregular" horiz-adv-x="1163" >
<font-face units-per-em="2048" ascent="1638" descent="-410" />
<missing-glyph horiz-adv-x="614" />
<glyph horiz-adv-x="2048" />
<glyph horiz-adv-x="2048" />
<glyph unicode="&#xd;" horiz-adv-x="2048" />
<glyph unicode=" "  horiz-adv-x="614" />
<glyph unicode="&#x09;" horiz-adv-x="614" />
<glyph unicode="&#xa0;" horiz-adv-x="614" />
<glyph unicode="!" horiz-adv-x="559" d="M61 2v223h437v-223h-437zM61 338v1096h437v-1096h-437z" />
<glyph unicode="&#x22;" horiz-adv-x="1073" d="M61 1133h230v-205l205 205v307h-435v-307zM578 1133h229v-205l205 205v307h-434v-307z" />
<glyph unicode="#" horiz-adv-x="1550" d="M61 227h127l-47 -227h434l48 227h106l-47 -227h434l47 227h326v439h-232l25 112h207v439h-115l47 215h-436l-45 -215h-106l47 215h-437l-45 -215h-338v-439h244l-22 -112h-222v-439zM717 666l24 112h105l-23 -112h-106z" />
<glyph unicode="$" horiz-adv-x="1181" d="M61 4v586q61 -96 161.5 -161.5t221.5 -88.5v-449h-36v113h-347zM61 940q0 166 96 295.5t251 175.5v137h206v-553q138 0 254.5 -67t184 -181t67.5 -247q0 -146 -74.5 -264t-199.5 -179v-166h-289v553q-138 0 -252.5 67.5t-179 181t-64.5 247.5zM725 1098v450h119v-114h209 v-519q-135 148 -328 183z" />
<glyph unicode="%" horiz-adv-x="1718" d="M61 1090q0 -122 81 -212t200 -102v654q-119 -14 -200 -103.5t-81 -210.5v-26zM127 4h438l1034 1428h-438zM410 776q115 12 194.5 102t79.5 212v26q0 120 -79.5 210t-194.5 104v-654zM1034 313q0 -122 81 -211.5t200 -101.5v653q-119 -14 -200 -103t-81 -210v-27zM1382 0 q115 12 195 101.5t80 211.5v27q0 120 -80 209.5t-195 103.5v-653z" />
<glyph unicode="&#x26;" horiz-adv-x="1341" d="M61 397q0 -167 116 -280t278 -113h90v1428h-123q-152 0 -256.5 -103.5t-104.5 -255.5q0 -107 59.5 -195.5t155.5 -132.5q-96 -50 -155.5 -145t-59.5 -203zM655 4h111q192 0 336 120t178 306h-625v-426zM655 545h453q-57 132 -184 200q96 44 155.5 132.5t59.5 195.5 q0 152 -104.5 255.5t-256.5 103.5h-123v-887z" />
<glyph unicode="'" horiz-adv-x="557" d="M61 1133h230v-205l205 205v307h-435v-307z" />
<glyph unicode="(" horiz-adv-x="704" d="M61 117q0 -143 70.5 -264.5t192 -192t264.5 -70.5q15 0 55 4v433h-113v968h113v435q-18 2 -55 2q-143 0 -264.5 -70.5t-192 -192t-70.5 -264.5v-788z" />
<glyph unicode=")" horiz-adv-x="704" d="M61 27h113v968h-113v435q18 2 56 2q143 0 264 -70.5t191.5 -192t70.5 -264.5v-788q0 -143 -70.5 -264.5t-191.5 -192t-264 -70.5q-16 0 -56 4v433z" />
<glyph unicode="*" horiz-adv-x="837" d="M61 610h168l152 152v225h-320v-377zM61 1210v226h320v-377h-168zM457 610v377h168l151 -151v-226h-319zM457 1059h319v377h-168l-151 -152v-225z" />
<glyph unicode="+" horiz-adv-x="1234" d="M61 500h338v-336h439v336h336v438h-336v338h-439v-338h-338v-438z" />
<glyph unicode="," horiz-adv-x="557" d="M61 0h230v-205l205 205v307h-435v-307z" />
<glyph unicode="-" horiz-adv-x="628" d="M61 500h506v438h-506v-438z" />
<glyph unicode="." horiz-adv-x="557" d="M61 0h435v307h-435v-307z" />
<glyph unicode="/" horiz-adv-x="1079" d="M61 0h435l522 1432h-436z" />
<glyph unicode="0" d="M61 518q0 -202 134.5 -347t334.5 -165v1426q-199 -22 -334 -168t-135 -342v-404zM643 6q194 22 326.5 166.5t132.5 345.5v404q0 195 -133.5 341.5t-325.5 168.5v-1426z" />
<glyph unicode="1" horiz-adv-x="561" d="M61 4h439v1428h-439v-1428z" />
<glyph unicode="2" horiz-adv-x="1181" d="M61 4h564v440q138 0 252 67.5t178.5 181t64.5 247.5t-64.5 247t-178.5 180t-252 67h-58v-439q-138 0 -254.5 -67t-184 -181t-67.5 -247v-496zM129 915q129 144 326 183v336h-326v-519zM737 4h383v586q-61 -96 -161.5 -161.5t-221.5 -88.5v-336z" />
<glyph unicode="3" horiz-adv-x="1146" d="M61 4h426v426h-426v-426zM61 545h426v405h-426v-405zM61 1061h426v371h-426v-371zM600 4h92q162 0 277.5 113t115.5 280q0 108 -59.5 203t-155.5 145q96 44 155.5 132.5t59.5 195.5q0 152 -104 255.5t-256 103.5h-125v-371h2v-111h-2v-405h2v-115h-2v-426z" />
<glyph unicode="4" horiz-adv-x="1226" d="M61 545h443v340h-2v551h-441v-891zM616 4h437v541h112v340h-112v551h-437v-1432z" />
<glyph unicode="5" horiz-adv-x="1181" d="M61 4v586q61 -96 161.5 -161.5t221.5 -88.5v-336h-383zM61 940v494h553v-439q138 0 254.5 -67t184 -181t67.5 -247q0 -138 -67.5 -252t-183.5 -179t-255 -65h-57v440q-138 0 -252.5 67.5t-179 181t-64.5 247.5zM721 1098v336h332v-519q-132 147 -332 183z" />
<glyph unicode="6" d="M61 526q0 -162 88.5 -293t233.5 -192q71 -30 147 -39v993h572q-33 186 -178.5 311.5t-335.5 125.5q-143 0 -264.5 -70.5t-192 -192t-70.5 -264.5v-379zM643 2q74 9 145 37q142 58 228 183t86 286v151q0 92 -63.5 158t-151.5 66h-244v-881z" />
<glyph unicode="7" horiz-adv-x="1150" d="M61 2h486l358 946h-485zM61 1434l101 -369l786 -4l142 373h-1029z" />
<glyph unicode="8" horiz-adv-x="1200" d="M61 397q0 -167 116 -280t278 -113h90v1428h-123q-152 0 -256.5 -103.5t-104.5 -255.5q0 -107 59.5 -195.5t155.5 -132.5q-96 -50 -155.5 -145t-59.5 -203zM655 4h90q162 0 278 113t116 280q0 108 -59.5 203t-155.5 145q96 44 155.5 132.5t59.5 195.5q0 152 -104.5 255.5 t-256.5 103.5h-123v-1428z" />
<glyph unicode="9" d="M61 438q33 -186 178.5 -311t335.5 -125q143 0 264.5 70.5t192 191.5t70.5 264v379q0 162 -88.5 293.5t-233.5 192.5q-74 28 -147 37v-992h-572zM61 774q0 -68 37 -124t95 -83q43 -16 83 -16h244v881q-73 -9 -147 -37q-141 -60 -226.5 -184.5t-85.5 -284.5v-152z" />
<glyph unicode=":" horiz-adv-x="557" d="M61 0h435v307h-435v-307zM61 770h435v307h-435v-307z" />
<glyph unicode=";" horiz-adv-x="557" d="M61 0h230v-205l205 205v307h-435v-307zM61 770h435v307h-435v-307z" />
<glyph unicode="&#x3c;" horiz-adv-x="1218" d="M61 401l1096 -303v604l-1096 -288v-13zM61 524l1096 301v482l-1096 -291v-492z" />
<glyph unicode="=" horiz-adv-x="1320" d="M61 211h1199v438h-1199v-438zM61 762h1199v438h-1199v-438z" />
<glyph unicode="&#x3e;" horiz-adv-x="1218" d="M61 98v604l1096 -286v-15zM61 825v482l1096 -291v-490z" />
<glyph unicode="?" horiz-adv-x="1183" d="M61 2v223h437v-223h-437zM63 336v164q0 133 67.5 247t184 181t254.5 67v439h58q138 0 252 -67t178.5 -180t64.5 -247t-64.5 -247.5t-178.5 -181t-252 -67.5h-129v-108h-435zM131 915v519h326v-336q-197 -39 -326 -183z" />
<glyph unicode="@" horiz-adv-x="1900" d="M61 270q0 -165 80.5 -306t220 -224.5t304.5 -83.5h559q122 0 235.5 48.5t196.5 129.5t132.5 192t49.5 232v6h-278q-3 -134 -100 -230.5t-236 -96.5h-559q-134 0 -229 99t-95 234v559q0 135 94.5 230.5t229.5 95.5h559q142 0 239 -95t97 -231q0 -128 -91.5 -225 t-224.5 -104v131q0 156 -110 267.5t-263 111.5q-19 0 -51 -4l215 -787h189q122 0 235.5 48.5t196.5 129.5t132.5 192t49.5 232q0 165 -83 306.5t-224.5 224t-306.5 82.5h-559q-124 0 -236 -47.5t-193 -128.5t-128.5 -193t-47.5 -236v-559zM494 598q0 -157 110.5 -268 t267.5 -111h82l-206 768q-112 -39 -183 -137t-71 -219v-33z" />
<glyph unicode="A" horiz-adv-x="1331" d="M61 2h605l-310 1112zM412 1315l397 -1313h461l-391 1432h-437z" />
<glyph unicode="B" horiz-adv-x="1146" d="M61 4h439v1428h-439v-1428zM602 4h90q162 0 277.5 113t115.5 280q0 108 -59.5 203t-155.5 145q96 44 155.5 132.5t59.5 195.5q0 152 -104 255.5t-256 103.5h-123v-1428z" />
<glyph unicode="C" horiz-adv-x="1173" d="M61 526q0 -203 135 -352.5t334 -171.5v1425q-199 -22 -334 -171t-135 -351v-379zM643 2q199 22 334 171.5t135 352.5v23h-469v-547zM643 883h469v22q0 203 -135 352.5t-334 169.5v-544z" />
<glyph unicode="D" d="M61 2h469v1432h-469v-1432zM643 4q192 22 325.5 172t133.5 352v379q0 201 -133.5 351t-325.5 172v-1426z" />
<glyph unicode="E" horiz-adv-x="1069" d="M61 4h437v1430h-437v-1430zM610 4h398v426h-398v-426zM610 545h398v338h-398v-338zM610 993h398v441h-398v-441z" />
<glyph unicode="F" horiz-adv-x="1050" d="M61 2h424v1432h-424v-1432zM598 551h391v334h-391v-334zM598 997h391v437h-391v-437z" />
<glyph unicode="G" d="M61 526q0 -203 135 -352.5t334 -171.5v1425q-199 -22 -334 -171t-135 -351v-379zM643 2q95 10 180 53.5t146.5 110.5t97 156t35.5 186v375h-459v-881zM643 995h459q-32 171 -160 292t-299 140v-432z" />
<glyph unicode="H" horiz-adv-x="1114" d="M61 4h441v1432h-441v-1432zM614 4h439v1432h-439v-1432z" />
<glyph unicode="I" horiz-adv-x="561" d="M61 4h439v1428h-439v-1428z" />
<glyph unicode="J" d="M61 526v23h471v-547q-129 11 -236.5 83t-171 189t-63.5 252zM645 4q195 26 326 174t131 348v908h-457v-1430z" />
<glyph unicode="K" horiz-adv-x="1171" d="M61 4v1430h441v-637l-260 -105l190 -688h-371zM383 627l164 -623h563l-192 733l192 697h-496v-713z" />
<glyph unicode="L" horiz-adv-x="1050" d="M61 4h437v1430h-437v-1430zM610 4h379v358h-379v-358z" />
<glyph unicode="M" horiz-adv-x="1961" d="M61 0h506l394 1434h-476zM692 2l391 1432h437l34 -136l-401 -1296h-461zM1296 2l308 1114l297 -1114h-605z" />
<glyph unicode="N" horiz-adv-x="1112" d="M61 4h371l-371 1354v-1354zM164 1432l381 -1428h420l-373 1428h-428zM702 1432l349 -1309v1309h-349z" />
<glyph unicode="O" d="M61 518q0 -202 134.5 -347t334.5 -165v1426q-199 -22 -334 -168t-135 -342v-404zM643 6q194 22 326.5 166.5t132.5 345.5v404q0 195 -133.5 341.5t-325.5 168.5v-1426z" />
<glyph unicode="P" d="M61 4h437v289q-179 15 -324 143l78 80q112 -97 246 -117v1033h-437v-1428zM610 393q132 6 245 77t180 190t67 258q0 100 -40 193t-105.5 162t-156.5 112t-190 47v-1039z" />
<glyph unicode="Q" d="M61 528q0 -204 130.5 -353t328.5 -171v1426q-198 -20 -328.5 -168.5t-130.5 -352.5v-381zM633 -199h379l-90 336q85 66 132.5 169.5t47.5 221.5v381q0 202 -135 350.5t-334 170.5v-1629z" />
<glyph unicode="R" horiz-adv-x="1171" d="M61 4h371l-192 688l262 117v625h-441v-1430zM375 629l172 -625h563l-147 541q135 169 135 370q0 134 -63.5 250t-174.5 187.5t-246 79.5v-695z" />
<glyph unicode="S" horiz-adv-x="1181" d="M61 4v586q61 -96 161.5 -161.5t221.5 -88.5v-336h-383zM61 940q0 134 64.5 247t179 180t252.5 67h57v-439q138 0 254.5 -67t184 -181t67.5 -247q0 -138 -67.5 -252t-183.5 -179t-255 -65h-57v440q-138 0 -252.5 67.5t-179 181t-64.5 247.5zM725 1098v336h328v-519 q-135 148 -328 183z" />
<glyph unicode="T" horiz-adv-x="1062" d="M61 997h940v437h-940v-437zM307 2h436v883h-436v-883z" />
<glyph unicode="U" horiz-adv-x="1173" d="M61 526q0 -203 135 -352.5t334 -171.5v1434h-469v-910zM643 2q199 22 334 171.5t135 352.5v910h-469v-1434z" />
<glyph unicode="V" horiz-adv-x="1331" d="M61 1434l392 -1432h436l18 70l-354 1362h-492zM666 1434l301 -1135l303 1135h-604z" />
<glyph unicode="W" horiz-adv-x="1961" d="M61 1434h506l394 -1434h-476zM692 1432l391 -1432h437l26 98l-393 1334h-461zM1296 1432l310 -1110l295 1110h-605z" />
<glyph unicode="X" d="M61 2h469v1432h-469v-291q0 -139 101 -301q-101 -147 -101 -303v-537zM643 2h459v537q0 172 -90 303q90 144 90 301v291h-459v-1432z" />
<glyph unicode="Y" d="M61 1143q0 -150 83.5 -280t217.5 -189v-672h168v1432h-469v-291zM643 2h156v672q135 59 219 188.5t84 280.5v291h-459v-1432z" />
<glyph unicode="Z" horiz-adv-x="1150" d="M61 2h1029l-101 381l-782 2zM61 1434l101 -369h786l142 369h-1029zM250 498h481l174 454h-483z" />
<glyph unicode="[" horiz-adv-x="704" d="M61 -410h582v437h-113v968h113v437h-582v-1842z" />
<glyph unicode="\" horiz-adv-x="1079" d="M61 1432h437l520 -1432h-434z" />
<glyph unicode="]" horiz-adv-x="704" d="M61 27h113v968h-113v437h582v-1842h-582v437z" />
<glyph unicode="^" horiz-adv-x="1142" d="M61 686l199 748h488l-201 -748h-486zM664 686l194 748h16l207 -748h-417z" />
<glyph unicode="_" horiz-adv-x="1148" d="M61 31v-439h1026v439h-1026z" />
<glyph unicode="`" horiz-adv-x="557" d="M61 1331v105h435v-310h-230z" />
<glyph unicode="a" d="M61 526q0 -143 70.5 -264t192 -191.5t264.5 -70.5h110l-284 1065q-156 -55 -254.5 -191t-98.5 -305v-43zM516 1090l295 -1090h291v569q0 143 -70 264.5t-188.5 192t-255.5 70.5q-34 0 -72 -6z" />
<glyph unicode="b" d="M61 0h437v1087q-134 -20 -246 -114l-78 90q160 120 324 133v236h-437v-1432zM610 0q132 6 245 77.5t180 190.5t67 258v43q0 104 -40 199.5t-106 166t-156.5 114t-189.5 47.5v-1096z" />
<glyph unicode="c" d="M61 526q0 -203 135 -352.5t334 -171.5v1090q-199 -22 -334 -171.5t-135 -351.5v-43zM643 2q171 20 299 141.5t160 292.5h-459v-434zM643 659h459q-32 171 -160 292.5t-299 140.5v-433z" />
<glyph unicode="d" d="M61 526v43q0 104 39.5 199.5t106 166t157 114t188.5 47.5v-1096q-132 6 -244.5 77.5t-179.5 190.5t-67 258zM666 0v1087q133 -20 245 -114l78 90q-160 120 -323 133v236h436v-1432h-436z" />
<glyph unicode="e" d="M61 0h527q190 0 335 125t179 311h-572v656q-199 -22 -334 -171.5t-135 -351.5v-569zM643 549h459v20q0 134 -59.5 249t-165 188t-234.5 86v-543z" />
<glyph unicode="f" d="M61 0h469v1432q-199 -22 -334 -171.5t-135 -351.5v-909zM643 352q152 34 262 150.5t139 273.5h-401v-424zM643 999h453q-29 173 -154 293.5t-299 139.5v-433z" />
<glyph unicode="g" d="M61 514q0 -135 67 -251t183 -186.5t254 -76.5v1083q-142 -3 -256.5 -73.5t-181 -200t-66.5 -295.5zM104 -133q64 -132 190.5 -211.5t280.5 -79.5q108 0 205 39.5t168 108t112.5 164t41.5 202.5v993h-436v-1077q123 19 245 105l78 -78q-61 -61 -169 -103.5t-232 -42.5h-35 q-91 0 -175.5 30.5t-137.5 80.5z" />
<glyph unicode="h" horiz-adv-x="1105" d="M61 0h437v1432h-437v-1432zM610 0h434v1096h-434v-1096z" />
<glyph unicode="i" horiz-adv-x="559" d="M61 0h437v1096h-437v-1096zM61 1208h437v224h-437v-224z" />
<glyph unicode="j" d="M61 -113h469v-422q-177 15 -307.5 132t-161.5 290zM643 -532v1630h459v-1121q0 -198 -131.5 -341t-327.5 -168zM643 1208h459v224h-459v-224z" />
<glyph unicode="k" d="M61 0h369l-190 694l258 109v629h-437v-1432zM377 629l166 -629h559l-191 727l101 369h-402v-248l199 84l41 -107z" />
<glyph unicode="l" horiz-adv-x="559" d="M61 0h437v1432h-437v-1432z" />
<glyph unicode="m" horiz-adv-x="1771" d="M61 0h498l301 1096h-475zM684 0l299 1096h436l25 -97l-289 -999h-471zM1288 0l217 772l205 -772h-422z" />
<glyph unicode="n" horiz-adv-x="1173" d="M61 0v569q0 202 135 351.5t334 171.5v-1092h-469zM643 0v1092q130 -13 237.5 -85.5t169.5 -188t62 -249.5v-569h-469z" />
<glyph unicode="o" d="M61 526q0 -203 135 -352.5t334 -171.5v1090q-199 -22 -334 -171.5t-135 -351.5v-43zM643 2q192 22 325.5 172t133.5 352v43q0 201 -133.5 351t-325.5 172v-1090z" />
<glyph unicode="p" d="M61 -336v1432h437v-1090q-134 22 -246 117l-78 -90q160 -120 324 -133v-236h-437zM610 0v1096q99 -4 189.5 -47.5t157 -114t106 -166t39.5 -199.5v-43q0 -139 -67 -258t-180 -190.5t-245 -77.5z" />
<glyph unicode="q" d="M61 526q0 -139 67 -258t180 -190.5t245 -77.5v1096q-99 -4 -189.5 -47.5t-157 -114t-106 -166t-39.5 -199.5v-43zM666 6q133 23 245 117l78 -90q-160 -120 -323 -133v-236h436v1432h-436v-1090z" />
<glyph unicode="r" horiz-adv-x="1150" d="M61 0v569q0 132 61 247t166 188t232 88v-1092h-459zM631 659v433q175 -19 305.5 -141t153.5 -292h-459z" />
<glyph unicode="s" horiz-adv-x="1150" d="M61 436h570v113h459v-23q0 -107 -41 -204.5t-110.5 -168t-164.5 -112t-199 -41.5q-192 0 -340.5 126t-173.5 310zM61 659h1029q-34 187 -179 312t-336 125q-192 0 -340.5 -126.5t-173.5 -310.5z" />
<glyph unicode="t" horiz-adv-x="1150" d="M61 526q0 -107 41.5 -204.5t110.5 -168t164 -112t198 -41.5q193 0 341.5 125.5t173.5 310.5h-570v2h-2v994h-457v-906zM631 659h459v437h-459v-437z" />
<glyph unicode="u" d="M61 526q0 -204 131 -353t328 -171v1094h-459v-570zM633 2q199 22 334 171.5t135 352.5v570h-469v-1094z" />
<glyph unicode="v" horiz-adv-x="1331" d="M61 1100l291 -1096h486l-295 1096h-482zM666 1100l284 -1096h17l303 1096h-604z" />
<glyph unicode="w" horiz-adv-x="1771" d="M61 1098h498l301 -1096h-475zM684 1098l299 -1096h436l27 102l-291 994h-471zM1288 1098l217 -770l205 770h-422z" />
<glyph unicode="x" d="M61 0v291q0 139 101 301q-101 165 -101 303v201h469v-1096h-469zM643 0v1096h459v-201q0 -156 -90 -303q90 -144 90 -301v-291h-459z" />
<glyph unicode="y" d="M61 514q0 -135 67 -251t183 -186.5t254 -76.5v1083h-504v-569zM104 -131q64 -133 190.5 -213t280.5 -80q108 0 205 39.5t168 108t112.5 164t41.5 202.5v993h-436v-1077q123 19 245 105l78 -78q-61 -61 -169 -103.5t-232 -42.5h-35q-88 0 -174.5 32t-140.5 81z" />
<glyph unicode="z" horiz-adv-x="1153" d="M61 1096l103 -381l645 -2l147 383h-895zM96 2h996l-101 369h-313l88 229h-444z" />
<glyph unicode="{" horiz-adv-x="917" d="M61 530q96 -50 155.5 -145t59.5 -203q0 -34 -2 -65q0 -143 70.5 -264.5t192 -192t264.5 -70.5q15 0 55 4v433h-111q-2 -2 -3 16l-1 139q0 108 -59.5 203t-155.5 145q96 44 155.5 132.5t59.5 195.5q0 133 2 137h113v435q-18 2 -55 2q-143 0 -264.5 -70.5t-192 -192 t-70.5 -264.5q2 -20 2 -47q0 -107 -59.5 -195.5t-155.5 -132.5z" />
<glyph unicode="|" horiz-adv-x="561" d="M61 -410h439v1842h-439v-1842z" />
<glyph unicode="}" horiz-adv-x="917" d="M61 27h111q2 -2 3 16q1 23 1 139q0 108 59.5 203t155.5 145q-96 44 -155.5 132.5t-59.5 195.5q0 133 -2 137h-113v435q18 2 56 2q143 0 264 -70.5t191.5 -192t70.5 -264.5q-2 -20 -2 -47q0 -107 59.5 -195.5t155.5 -132.5q-96 -50 -155.5 -145t-59.5 -203q0 -34 2 -65 q0 -143 -70.5 -264.5t-191.5 -192t-264 -70.5q-16 0 -56 4v433z" />
<glyph unicode="~" horiz-adv-x="1234" d="M61 416q0 -6 5 -56h432v113h149q143 0 264.5 70.5t192 191.5t70.5 264q0 29 -3 56h-434v-113h-149q-143 0 -264.5 -70.5t-192 -191.5t-70.5 -264z" />
<glyph unicode="&#xa1;" horiz-adv-x="559" d="M61 -410h437v1096h-437v-1096zM61 799h437v223h-437v-223z" />
<glyph unicode="&#xa2;" d="M61 526q0 -116 47.5 -218.5t131.5 -176.5l-107 -297h434l62 166q177 15 309 137.5t164 298.5h-316l39 109h-764v-19zM68 657h798l2 2h234q-27 151 -135 269l123 338h-437l-61 -170h-4q-195 0 -341 -125.5t-179 -313.5z" />
<glyph unicode="&#xa3;" horiz-adv-x="1267" d="M61 6v400h1145v-400h-1145zM121 547v403h977v-403h-977zM182 1063v10q0 152 104.5 255.5t256.5 103.5h663v-369h-1024z" />
<glyph unicode="&#xa5;" d="M61 238h301v-236h168v1432h-469v-291q0 -149 82.5 -278.5t214.5 -188.5h-297v-438zM643 2h156v236h303v438h-299q133 58 216 188t83 279v291h-459v-1432z" />
<glyph unicode="&#xa7;" horiz-adv-x="1150" d="M61 115h570v112h459v-22q0 -143 -69.5 -264.5t-188.5 -192t-257 -70.5q-192 0 -340.5 126.5t-173.5 310.5zM61 338q25 184 173.5 310t340.5 126h56v113h459v-23q0 -107 -41 -204.5t-110.5 -168t-164.5 -112t-199 -41.5h-514zM61 997h1029q-34 187 -179 312t-336 125 q-192 0 -340.5 -126.5t-173.5 -310.5z" />
<glyph unicode="&#xa8;" horiz-adv-x="1103" d="M61 1128h435v308h-435v-308zM608 1128h434v308h-434v-308z" />
<glyph unicode="&#xa9;" horiz-adv-x="1556" d="M61 496q0 -133 65 -247t178 -181.5t245 -67.5h450q99 0 191 40t158.5 106.5t106.5 158.5t40 191v450q0 132 -67.5 245t-181.5 178t-247 65h-450q-99 0 -189.5 -38.5t-156 -104t-104 -156t-38.5 -189.5v-450zM287 496v450q0 108 77 185t185 77h450q113 0 192 -77t79 -185 v-450q0 -109 -79.5 -190t-191.5 -81h-450q-108 0 -185 81.5t-77 189.5zM506 631q0 -102 67.5 -176.5t167.5 -85.5v712q-100 -11 -167.5 -86t-67.5 -176v-188zM797 367q100 11 167.5 86.5t67.5 177.5v10h-235v-274zM797 809h235v10q0 101 -67.5 177t-167.5 85v-272z" />
<glyph unicode="&#xaa;" horiz-adv-x="747" d="M61 1092q0 -130 92.5 -223t223.5 -93h67l-174 639q-93 -33 -151 -114t-58 -183v-26zM334 1430l178 -654h174v342q0 130 -91.5 223t-217.5 93q-15 0 -43 -4z" />
<glyph unicode="&#xab;" horiz-adv-x="1398" d="M61 522q0 -143 70.5 -264t192 -191.5t264.5 -70.5q15 0 55 4v432h-113v186h113v435q-18 2 -55 2q-107 0 -204.5 -42t-168.5 -113t-112.5 -170t-41.5 -208zM756 522q0 -143 70.5 -264t191.5 -191.5t264 -70.5q15 0 55 4v432h-112v186h112v435q-18 2 -55 2 q-143 0 -264 -70.5t-191.5 -193.5t-70.5 -269z" />
<glyph unicode="&#xad;" horiz-adv-x="628" d="M61 500h506v438h-506v-438z" />
<glyph unicode="&#xae;" horiz-adv-x="1556" d="M61 496q0 -133 65 -247t178 -181.5t245 -67.5h450q99 0 191 40t158.5 106.5t106.5 158.5t40 191v450q0 132 -67.5 245t-181.5 178t-247 65h-450q-99 0 -189.5 -38.5t-156 -104t-104 -156t-38.5 -189.5v-450zM287 496v450q0 108 77 185t185 77h450q113 0 192 -77t79 -185 v-450q0 -109 -79.5 -190t-191.5 -81h-450q-108 0 -185 81.5t-77 189.5zM537 375h184l-96 344l131 59v314h-219v-717zM692 688l86 -313h283l-74 270q68 85 68 186q0 103 -70 178t-172 81v-347z" />
<glyph unicode="&#xaf;" horiz-adv-x="1144" d="M61 1450h1022v307h-1022v-307z" />
<glyph unicode="&#xb0;" horiz-adv-x="780" d="M61 1116q0 -125 93 -216t223 -91h26q130 0 223 91t93 216q0 130 -92.5 223t-223.5 93h-26q-131 0 -223.5 -93t-92.5 -223zM324 1083v68h133v-68h-133z" />
<glyph unicode="&#xb4;" horiz-adv-x="557" d="M61 1128h230l205 205v103h-435v-308z" />
<glyph unicode="&#xb6;" horiz-adv-x="1277" d="M61 866q0 -107 41.5 -204.5t110.5 -168t164 -112t198 -41.5q29 0 91 8v-758h110v1731h213v-1731h113v1731h115v115h-642q-137 0 -255.5 -70.5t-188.5 -192t-70 -264.5v-43z" />
<glyph unicode="&#xb7;" horiz-adv-x="557" d="M61 573h435v308h-435v-308z" />
<glyph unicode="&#xb8;" horiz-adv-x="634" d="M61 -229l205 -205h307v434h-307v-229h-205z" />
<glyph unicode="&#xba;" horiz-adv-x="780" d="M61 1116q0 -125 93 -216t223 -91h26q130 0 223 91t93 216q0 130 -92.5 223t-223.5 93h-26q-131 0 -223.5 -93t-92.5 -223zM324 1083v68h133v-68h-133z" />
<glyph unicode="&#xbb;" horiz-adv-x="1398" d="M61 0v432h113v186h-113v435q18 2 56 2q143 0 264 -70.5t191.5 -193.5t70.5 -269q0 -143 -70.5 -264t-191.5 -191.5t-264 -70.5q-16 0 -56 4zM756 0v432h112v186h-112v435q18 2 55 2q143 0 264 -70.5t191.5 -193.5t70.5 -269q0 -143 -70.5 -264t-191.5 -191.5t-264 -70.5 q-15 0 -55 4z" />
<glyph unicode="&#xbf;" horiz-adv-x="1183" d="M61 86q0 134 64.5 247.5t179 181t252.5 67.5h129v108h434v-164q0 -133 -67.5 -247t-184 -181t-254.5 -67v-439h-57q-138 0 -252.5 67t-179 180t-64.5 247zM686 801v223h436v-223h-436zM723 -72q198 37 330 183v-519h-330v336z" />
<glyph unicode="&#xc0;" horiz-adv-x="1331" d="M61 2h605l-310 1112zM412 1315l397 -1313h461l-391 1432h-437zM453 1753v105h434v-310h-230z" />
<glyph unicode="&#xc1;" horiz-adv-x="1331" d="M61 2h605l-310 1112zM412 1315l397 -1313h461l-391 1432h-437zM487 1548h230l205 205v102h-435v-307z" />
<glyph unicode="&#xc2;" horiz-adv-x="1331" d="M61 2h605l-310 1112zM209 1597q0 -13 4 -49h379v99h164v-99h381q2 16 2 49l-385 381h-162zM412 1315l397 -1313h461l-391 1432h-437z" />
<glyph unicode="&#xc3;" horiz-adv-x="1331" d="M61 2h605l-310 1112zM213 1343v512h664l204 205v-512h-663zM412 1315l397 -1313h461l-391 1432h-437z" />
<glyph unicode="&#xc4;" horiz-adv-x="1331" d="M61 2h605l-310 1112zM182 1548h434v307h-434v-307zM412 1315l397 -1313h461l-391 1432h-437zM729 1548h434v307h-434v-307z" />
<glyph unicode="&#xc5;" horiz-adv-x="1331" d="M61 2h605l-310 1112zM412 1315l397 -1313h461l-391 1432h-437zM467 1739q0 -78 58 -135.5t139 -57.5h18q81 0 139 57.5t58 135.5q0 82 -57.5 139t-139.5 57h-18q-82 0 -139.5 -57t-57.5 -139zM596 1683v117h158v-117h-158z" />
<glyph unicode="&#xc6;" horiz-adv-x="1890" d="M61 2h605l-314 1098zM414 1327l395 -1323h1020v426h-508v115h508v338h-508v110h508v441h-1387z" />
<glyph unicode="&#xc7;" horiz-adv-x="1173" d="M61 526q0 -202 135 -351t334 -171v-233h-206l204 -205h308v495q125 69 200.5 193t75.5 272v23h-469v-113h-113v991q-199 -22 -334 -171t-135 -351v-379zM643 883h469v22q0 203 -135 352.5t-334 169.5v-544z" />
<glyph unicode="&#xc8;" horiz-adv-x="1069" d="M61 4h437v1430h-437v-1430zM344 1753v105h434v-310h-229zM610 4h398v426h-398v-426zM610 545h398v338h-398v-338zM610 993h398v441h-398v-441z" />
<glyph unicode="&#xc9;" horiz-adv-x="1069" d="M61 4h437v1430h-437v-1430zM379 1548h229l205 205v102h-434v-307zM610 4h398v426h-398v-426zM610 545h398v338h-398v-338zM610 993h398v441h-398v-441z" />
<glyph unicode="&#xca;" horiz-adv-x="1069" d="M61 4h437v1430h-437v-1430zM66 1597q0 -13 4 -49h379v99h163v-99h381q2 16 2 49l-385 381h-161zM610 4h398v426h-398v-426zM610 545h398v338h-398v-338zM610 993h398v441h-398v-441z" />
<glyph unicode="&#xcb;" horiz-adv-x="1103" d="M61 4h437v1430h-437v-1430zM61 1546h435v307h-435v-307zM608 1546h434v307h-434v-307zM610 4h398v426h-398v-426zM610 545h398v338h-398v-338zM610 993h398v441h-398v-441z" />
<glyph unicode="&#xcc;" horiz-adv-x="561" d="M61 4h439v1428h-439v-1428zM63 1753v105h435v-310h-230z" />
<glyph unicode="&#xcd;" horiz-adv-x="591" d="M61 4h439v1428h-439v-1428zM96 1548h230l204 205v102h-434v-307z" />
<glyph unicode="&#xce;" horiz-adv-x="1052" d="M61 1595q0 -4 5 -49h378v99h164v-99h381q2 16 2 49l-385 381h-162zM307 4h438v1428h-438v-1428z" />
<glyph unicode="&#xcf;" horiz-adv-x="1103" d="M61 1546h435v307h-435v-307zM332 4h438v1428h-438v-1428zM608 1546h434v307h-434v-307z" />
<glyph unicode="&#xd1;" horiz-adv-x="1112" d="M61 4h371l-371 1354v-1354zM121 1542v512h663l205 205v-512h-663zM164 1432l381 -1428h420l-373 1428h-428zM702 1432l349 -1309v1309h-349z" />
<glyph unicode="&#xd2;" d="M61 518q0 -202 134.5 -347t334.5 -165v1426q-199 -22 -334 -168t-135 -342v-404zM365 1751v104h434v-309h-230zM643 6q194 22 326.5 166.5t132.5 345.5v404q0 195 -133.5 341.5t-325.5 168.5v-1426z" />
<glyph unicode="&#xd3;" d="M61 518q0 -202 134.5 -347t334.5 -165v1426q-199 -22 -334 -168t-135 -342v-404zM399 1548h230l205 205v102h-435v-307zM643 6q194 22 326.5 166.5t132.5 345.5v404q0 195 -133.5 341.5t-325.5 168.5v-1426z" />
<glyph unicode="&#xd4;" d="M61 518q0 -202 134.5 -347t334.5 -165v1426q-199 -22 -334 -168t-135 -342v-404zM117 1595q0 -13 4 -49h379v99h164v-99h380q3 24 3 49l-385 381h-162zM643 6q194 22 326.5 166.5t132.5 345.5v404q0 195 -133.5 341.5t-325.5 168.5v-1426z" />
<glyph unicode="&#xd5;" d="M61 518q0 -202 134.5 -347t334.5 -165v1426q-199 -22 -334 -168t-135 -342v-404zM147 1341v512h664l205 205v-512h-664zM643 6q194 22 326.5 166.5t132.5 345.5v404q0 195 -133.5 341.5t-325.5 168.5v-1426z" />
<glyph unicode="&#xd6;" d="M61 518q0 -202 134.5 -347t334.5 -165v1426q-199 -22 -334 -168t-135 -342v-404zM90 1546h434v307h-434v-307zM637 1546h434v307h-434v-307zM643 6q194 22 326.5 166.5t132.5 345.5v404q0 195 -133.5 341.5t-325.5 168.5v-1426z" />
<glyph unicode="&#xd7;" horiz-adv-x="1220" d="M61 883l240 -240l-238 -237l310 -310l237 238l238 -238l311 310l-237 237l237 240l-309 309l-240 -238l-237 238z" />
<glyph unicode="&#xd8;" d="M61 518q0 -183 111 -319l-72 -201h430v1429q-130 -13 -237.5 -83.5t-169.5 -181.5t-62 -240v-404zM643 0q193 22 326 169t133 349v404q0 178 -115 319l70 191h-414v-1432z" />
<glyph unicode="&#xd9;" horiz-adv-x="1173" d="M61 526q0 -203 135 -352.5t334 -171.5v1434h-469v-910zM369 1753v105h434v-310h-230zM643 2q199 22 334 171.5t135 352.5v910h-469v-1434z" />
<glyph unicode="&#xda;" horiz-adv-x="1173" d="M61 526q0 -203 135 -352.5t334 -171.5v1434h-469v-910zM401 1548h230l205 205v102h-435v-307zM643 2q199 22 334 171.5t135 352.5v910h-469v-1434z" />
<glyph unicode="&#xdb;" horiz-adv-x="1173" d="M61 526q0 -203 135 -352.5t334 -171.5v1434h-469v-910zM121 1595q0 -13 4 -49h379v99h164v-99h381q2 16 2 49l-385 381h-162zM643 2q199 22 334 171.5t135 352.5v910h-469v-1434z" />
<glyph unicode="&#xdc;" horiz-adv-x="1173" d="M61 526q0 -203 135 -352.5t334 -171.5v1434h-469v-910zM96 1546h434v307h-434v-307zM643 2q199 22 334 171.5t135 352.5v910h-469v-1434zM643 1546h434v307h-434v-307z" />
<glyph unicode="&#xdf;" horiz-adv-x="1249" d="M61 4h541v1428h-438v-990h-103v-438zM705 4h90q162 0 277.5 113t115.5 280q0 108 -59.5 203t-155.5 145q96 44 155.5 132.5t59.5 195.5q0 152 -104.5 255.5t-256.5 103.5h-122v-1428z" />
<glyph unicode="&#xe0;" d="M61 526q0 -143 70.5 -264t192 -191.5t264.5 -70.5h110l-284 1065q-156 -55 -254.5 -191t-98.5 -305v-43zM365 1413v105h434v-310h-230zM516 1090l295 -1090h291v569q0 143 -70 264.5t-188.5 192t-255.5 70.5q-34 0 -72 -6z" />
<glyph unicode="&#xe1;" d="M61 526q0 -143 70.5 -264t192 -191.5t264.5 -70.5h110l-284 1065q-156 -55 -254.5 -191t-98.5 -305v-43zM399 1208h230l205 205v103h-435v-308zM516 1090l295 -1090h291v569q0 143 -70 264.5t-188.5 192t-255.5 70.5q-34 0 -72 -6z" />
<glyph unicode="&#xe2;" d="M61 526q0 -143 70.5 -264t192 -191.5t264.5 -70.5h110l-284 1065q-156 -55 -254.5 -191t-98.5 -305v-43zM117 1257q0 -13 4 -49h379v99h164v-99h380q3 24 3 49l-385 381h-162zM516 1090l295 -1090h291v569q0 143 -70 264.5t-188.5 192t-255.5 70.5q-34 0 -72 -6z" />
<glyph unicode="&#xe3;" d="M61 526q0 -143 70.5 -264t192 -191.5t264.5 -70.5h110l-284 1065q-156 -55 -254.5 -191t-98.5 -305v-43zM147 1004v512h664l205 204v-512h-664zM516 1090l295 -1090h291v569q0 143 -70 264.5t-188.5 192t-255.5 70.5q-34 0 -72 -6z" />
<glyph unicode="&#xe4;" d="M61 526q0 -143 70.5 -264t192 -191.5t264.5 -70.5h110l-284 1065q-156 -55 -254.5 -191t-98.5 -305v-43zM90 1208h434v308h-434v-308zM516 1090l295 -1090h291v569q0 143 -70 264.5t-188.5 192t-255.5 70.5q-34 0 -72 -6zM637 1208h434v308h-434v-308z" />
<glyph unicode="&#xe5;" d="M61 526q0 -143 70.5 -264t192 -191.5t264.5 -70.5h110l-284 1065q-156 -55 -254.5 -191t-98.5 -305v-43zM375 1399q0 -79 57.5 -136t138.5 -57h19q81 0 138.5 57t57.5 136q0 82 -57 139t-139 57h-19q-82 0 -139 -57t-57 -139zM504 1343v117h158v-117h-158zM516 1090 l295 -1090h291v569q0 143 -70 264.5t-188.5 192t-255.5 70.5q-34 0 -72 -6z" />
<glyph unicode="&#xe6;" horiz-adv-x="1916" d="M61 526q0 -143 70.5 -264t192 -191.5t264.5 -70.5h110l-282 1067q-157 -53 -256 -190t-99 -308v-43zM520 1092l291 -1092h530q190 0 335 125t179 311h-571v656q-188 -17 -326 -162q-72 78 -168 122t-202 44q-22 0 -68 -4zM1397 549h458v20q0 204 -131 353.5t-327 169.5 v-543z" />
<glyph unicode="&#xe7;" d="M61 526q0 -202 134 -351t333 -171v-233h-204l204 -205h308v497q103 57 173 155t93 218h-572v656q-199 -22 -334 -171.5t-135 -351.5v-43zM643 659h459q-32 171 -160 292.5t-299 140.5v-433z" />
<glyph unicode="&#xe8;" d="M61 0h527q190 0 335 125t179 311h-572v656q-199 -22 -334 -171.5t-135 -351.5v-569zM365 1413v105h434v-310h-230zM643 549h459v20q0 134 -59.5 249t-165 188t-234.5 86v-543z" />
<glyph unicode="&#xe9;" d="M61 0h527q190 0 335 125t179 311h-572v656q-199 -22 -334 -171.5t-135 -351.5v-569zM399 1208h230l205 205v103h-435v-308zM643 549h459v20q0 134 -59.5 249t-165 188t-234.5 86v-543z" />
<glyph unicode="&#xea;" d="M61 0h527q190 0 335 125t179 311h-572v656q-199 -22 -334 -171.5t-135 -351.5v-569zM117 1257q0 -13 4 -49h379v99h164v-99h380q3 24 3 49l-385 381h-162zM643 549h459v20q0 134 -59.5 249t-165 188t-234.5 86v-543z" />
<glyph unicode="&#xeb;" d="M61 0h527q190 0 335 125t179 311h-572v656q-199 -22 -334 -171.5t-135 -351.5v-569zM90 1208h434v308h-434v-308zM637 1208h434v308h-434v-308zM643 549h459v20q0 134 -59.5 249t-165 188t-234.5 86v-543z" />
<glyph unicode="&#xec;" horiz-adv-x="559" d="M61 0h437v1096h-437v-1096zM61 1413v103h435v-308h-230z" />
<glyph unicode="&#xed;" horiz-adv-x="559" d="M61 0h437v1096h-437v-1096zM61 1208h230l205 205v103h-435v-308z" />
<glyph unicode="&#xee;" horiz-adv-x="1052" d="M61 1257q0 -4 5 -49h378v99h164v-99h381q2 16 2 49l-385 381h-162zM303 0h436v1096h-436v-1096z" />
<glyph unicode="&#xef;" horiz-adv-x="1103" d="M61 1208h435v308h-435v-308zM336 0h436v1096h-436v-1096zM608 1208h434v308h-434v-308z" />
<glyph unicode="&#xf1;" horiz-adv-x="1173" d="M61 0v569q0 202 135 351.5t334 171.5v-1092h-469zM152 1004v512h663l205 204v-512h-664zM643 0v1092q130 -13 237.5 -85.5t169.5 -188t62 -249.5v-569h-469z" />
<glyph unicode="&#xf2;" d="M61 526q0 -203 135 -352.5t334 -171.5v1090q-199 -22 -334 -171.5t-135 -351.5v-43zM365 1413v105h434v-310h-230zM643 2q192 22 325.5 172t133.5 352v43q0 201 -133.5 351t-325.5 172v-1090z" />
<glyph unicode="&#xf3;" d="M61 526q0 -203 135 -352.5t334 -171.5v1090q-199 -22 -334 -171.5t-135 -351.5v-43zM399 1208h230l205 205v103h-435v-308zM643 2q192 22 325.5 172t133.5 352v43q0 201 -133.5 351t-325.5 172v-1090z" />
<glyph unicode="&#xf4;" d="M61 526q0 -203 135 -352.5t334 -171.5v1090q-199 -22 -334 -171.5t-135 -351.5v-43zM117 1257q0 -13 4 -49h379v99h164v-99h380q3 24 3 49l-385 381h-162zM643 2q192 22 325.5 172t133.5 352v43q0 201 -133.5 351t-325.5 172v-1090z" />
<glyph unicode="&#xf5;" d="M61 526q0 -203 135 -352.5t334 -171.5v1090q-199 -22 -334 -171.5t-135 -351.5v-43zM147 1004v512h664l205 204v-512h-664zM643 2q192 22 325.5 172t133.5 352v43q0 201 -133.5 351t-325.5 172v-1090z" />
<glyph unicode="&#xf6;" d="M61 526q0 -203 135 -352.5t334 -171.5v1090q-199 -22 -334 -171.5t-135 -351.5v-43zM90 1208h434v308h-434v-308zM637 1208h434v308h-434v-308zM643 2q192 22 325.5 172t133.5 352v43q0 201 -133.5 351t-325.5 172v-1090z" />
<glyph unicode="&#xf7;" horiz-adv-x="1148" d="M61 508h1026v438h-1026v-438zM369 86h434v307h-434v-307zM369 1057h434v307h-434v-307z" />
<glyph unicode="&#xf8;" d="M61 526q0 -111 43.5 -209t120.5 -172l-53 -145h358v1092q-199 -22 -334 -171.5t-135 -351.5v-43zM643 2q192 22 325.5 172t133.5 352v43q0 106 -41 202.5t-113 170.5l58 154h-363v-1094z" />
<glyph unicode="&#xf9;" d="M61 526q0 -204 131 -353t328 -171v1094h-459v-570zM365 1413v105h434v-310h-230zM633 2q199 22 334 171.5t135 352.5v570h-469v-1094z" />
<glyph unicode="&#xfa;" d="M61 526q0 -204 131 -353t328 -171v1094h-459v-570zM395 1208h230l204 205v103h-434v-308zM633 2q199 22 334 171.5t135 352.5v570h-469v-1094z" />
<glyph unicode="&#xfb;" d="M61 526q0 -204 131 -353t328 -171v1094h-459v-570zM117 1257q0 -13 4 -49h379v99h164v-99h380q3 24 3 49l-385 381h-162zM633 2q199 22 334 171.5t135 352.5v570h-469v-1094z" />
<glyph unicode="&#xfc;" d="M61 526q0 -204 131 -353t328 -171v1094h-459v-570zM90 1208h434v308h-434v-308zM633 2q199 22 334 171.5t135 352.5v570h-469v-1094zM637 1208h434v308h-434v-308z" />
<glyph unicode="&#xff;" d="M61 514q0 -135 67 -251t183 -186.5t254 -76.5v1083h-504v-569zM90 1208h434v308h-434v-308zM104 -131q64 -133 190.5 -213t280.5 -80q108 0 205 39.5t168 108t112.5 164t41.5 202.5v993h-436v-1077q123 19 245 105l78 -78q-61 -61 -169 -103.5t-232 -42.5h-35 q-88 0 -174.5 32t-140.5 81zM637 1208h434v308h-434v-308z" />
<glyph unicode="&#x152;" horiz-adv-x="1652" d="M61 518q0 -107 41.5 -202.5t112.5 -164t168 -108t205 -39.5h1003v426h-497v115h497v338h-497v110h497v441q-851 0 -995 2h-8q-143 0 -264.5 -69.5t-192 -188t-70.5 -256.5v-404zM530 428v571h113v-571h-113z" />
<glyph unicode="&#x153;" horiz-adv-x="1746" d="M61 526q0 -143 70.5 -264t192 -191.5t264.5 -70.5h583q190 0 335.5 125t179.5 311h-572v223h113v-110h459v20q0 144 -67.5 265t-186 191.5t-261.5 70.5q-161 0 -297 -92q-136 92 -286 92q-143 0 -264.5 -70.5t-192 -192t-70.5 -264.5v-43zM530 436v223h113v-223h-113z " />
<glyph unicode="&#x178;" d="M61 1143q0 -150 83.5 -280t217.5 -189v-672h168v1432h-469v-291zM96 1546h434v307h-434v-307zM643 2h156v672q135 59 219 188.5t84 280.5v291h-459v-1432zM643 1546h434v307h-434v-307z" />
<glyph unicode="&#x2c6;" horiz-adv-x="1052" d="M61 1055q0 -4 5 -49h378v98h164v-98h381q2 16 2 49l-385 381h-162z" />
<glyph unicode="&#x2dc;" horiz-adv-x="991" d="M61 928v512h664l205 205v-512h-664z" />
<glyph unicode="&#x2000;" horiz-adv-x="1129" />
<glyph unicode="&#x2001;" horiz-adv-x="2259" />
<glyph unicode="&#x2002;" horiz-adv-x="1129" />
<glyph unicode="&#x2003;" horiz-adv-x="2259" />
<glyph unicode="&#x2004;" horiz-adv-x="753" />
<glyph unicode="&#x2005;" horiz-adv-x="564" />
<glyph unicode="&#x2006;" horiz-adv-x="376" />
<glyph unicode="&#x2007;" horiz-adv-x="376" />
<glyph unicode="&#x2008;" horiz-adv-x="282" />
<glyph unicode="&#x2009;" horiz-adv-x="451" />
<glyph unicode="&#x200a;" horiz-adv-x="125" />
<glyph unicode="&#x2010;" horiz-adv-x="628" d="M61 500h506v438h-506v-438z" />
<glyph unicode="&#x2011;" horiz-adv-x="628" d="M61 500h506v438h-506v-438z" />
<glyph unicode="&#x2012;" horiz-adv-x="628" d="M61 500h506v438h-506v-438z" />
<glyph unicode="&#x2013;" horiz-adv-x="1148" d="M61 500h1026v438h-1026v-438z" />
<glyph unicode="&#x2014;" horiz-adv-x="2158" d="M61 500h2036v438h-2036v-438z" />
<glyph unicode="&#x2018;" horiz-adv-x="557" d="M61 928h435v307h-230v205l-205 -205v-307z" />
<glyph unicode="&#x2019;" horiz-adv-x="557" d="M61 928v307h230v205l205 -205v-307h-435z" />
<glyph unicode="&#x201a;" horiz-adv-x="557" d="M61 -133h230v-205l205 205v307h-435v-307z" />
<glyph unicode="&#x201c;" horiz-adv-x="1073" d="M61 928h435v307h-230v205l-205 -205v-307zM578 928h434v307h-230v205l-204 -205v-307z" />
<glyph unicode="&#x201d;" horiz-adv-x="1073" d="M61 928v307h230v205l205 -205v-307h-435zM578 928v307h229v205l205 -205v-307h-434z" />
<glyph unicode="&#x201e;" horiz-adv-x="1073" d="M61 -133h230v-205l205 205v307h-435v-307zM578 -133h229v-205l205 205v307h-434v-307z" />
<glyph unicode="&#x2022;" horiz-adv-x="638" d="M61 604q0 107 75.5 182.5t182.5 75.5t183 -75.5t76 -182.5t-76 -182.5t-183 -75.5t-182.5 75.5t-75.5 182.5z" />
<glyph unicode="&#x2026;" horiz-adv-x="1923" d="M61 0h435v307h-435v-307zM745 0h435v307h-435v-307zM1427 0h435v307h-435v-307z" />
<glyph unicode="&#x202f;" horiz-adv-x="451" />
<glyph unicode="&#x2039;" horiz-adv-x="704" d="M61 522q0 -143 70.5 -264t192 -191.5t264.5 -70.5q15 0 55 4v432h-113v186h113v435q-18 2 -55 2q-107 0 -204.5 -42t-168.5 -113t-112.5 -170t-41.5 -208z" />
<glyph unicode="&#x203a;" horiz-adv-x="704" d="M61 0v432h113v186h-113v435q18 2 56 2q143 0 264 -70.5t191.5 -193.5t70.5 -269q0 -143 -70.5 -264t-191.5 -191.5t-264 -70.5q-16 0 -56 4z" />
<glyph unicode="&#x205f;" horiz-adv-x="564" />
<glyph unicode="&#x20ac;" horiz-adv-x="1286" d="M61 657h113v-131q0 -203 135 -352.5t334 -171.5v655h492v113h-492v657q-199 -22 -334 -171t-135 -351v-135h-113v-113zM756 2q199 22 334 171.5t135 352.5v23h-469v-547zM756 883h469v22q0 203 -135 352.5t-334 169.5v-544z" />
<glyph unicode="&#x2122;" horiz-adv-x="1855" d="M61 1153h603v281h-603v-281zM219 516h281v565h-281v-565zM614 514h324l254 920h-305zM1020 516l250 918h280l17 -64l-252 -854h-295zM1407 516l197 711l190 -711h-387z" />
<glyph unicode="&#xe000;" horiz-adv-x="1095" d="M0 0v1096h1096v-1096h-1096z" />
<glyph unicode="&#xfb01;" horiz-adv-x="1165" d="M61 0h469v1432q-199 -22 -334 -171.5t-135 -351.5v-909zM666 4h438v770h-2v2h-436v-772zM666 999h430q-28 167 -146 286.5t-284 144.5v-431z" />
<glyph unicode="&#xfb02;" horiz-adv-x="1157" d="M61 0v907q0 202 135 351.5t334 171.5v-1430h-469zM659 0v1434h437v-1434h-437z" />
</font>
</defs>
</svg>
